<?xml version="1.0" standalone="no"?>
<!DOCTYPE svg PUBLIC "-//W3C//DTD SVG 20010904//EN"
 "http://www.w3.org/TR/2001/REC-SVG-20010904/DTD/svg10.dtd">
<svg version="1.0" xmlns="http://www.w3.org/2000/svg"
 width="700.000000pt" height="700.000000pt" viewBox="0 0 700.000000 700.000000"
 preserveAspectRatio="xMidYMid meet">
<metadata>
Created by potrace 1.14, written by Peter Selinger 2001-2017
</metadata>
<g transform="translate(0.000000,700.000000) scale(0.100000,-0.100000)"
fill="#000000" stroke="none">
<path d="M3486 6670 c-20 -33 -88 -149 -152 -256 -64 -107 -114 -197 -112
-200 3 -2 140 -3 306 -2 l301 3 -54 90 c-30 50 -72 122 -95 160 -22 39 -45 77
-50 85 -6 8 -32 53 -59 98 l-49 84 -36 -62z"/>
<path d="M2089 5950 c-1 -3 -2 -76 -2 -163 l-2 -157 1437 0 1437 0 -2 163 -2
162 -1432 0 c-788 0 -1433 -2 -1434 -5z"/>
<path d="M2665 5372 c-2 -2 29 -45 68 -95 97 -125 167 -235 246 -391 79 -155
94 -190 157 -361 26 -71 48 -131 49 -133 1 -1 28 7 59 18 32 11 79 22 104 26
l47 6 0 346 0 347 128 0 127 1 0 -347 0 -347 47 -7 c26 -4 73 -15 104 -24 l56
-18 23 66 c115 334 310 698 463 863 6 8 20 23 29 34 17 19 15 19 -843 20 -473
0 -862 -2 -864 -4z"/>
<path d="M1084 4938 c-4 -6 -8 -2453 -5 -2809 l1 -55 162 0 161 1 -1 1430 c0
787 -1 1432 -1 1435 -2 9 -312 7 -317 -2z"/>
<path d="M5642 3530 c0 -778 1 -1424 3 -1436 4 -19 10 -20 157 -18 84 1 156 2
159 3 11 2 6 2861 -5 2863 -6 0 -79 2 -162 2 l-151 2 -1 -1416z"/>
<path d="M1659 4347 c-1 -39 -1 -1691 0 -1695 1 -1 36 25 78 59 232 184 493
322 843 445 36 13 54 25 53 34 -1 8 -12 55 -25 105 l-23 90 -342 -1 -343 0 0
127 0 128 341 0 c188 0 343 2 345 4 2 1 5 16 8 32 3 17 14 62 25 100 11 39 17
73 13 76 -4 4 -25 12 -47 19 -22 7 -103 37 -180 68 -259 102 -481 228 -662
375 l-83 67 -1 -33z"/>
<path d="M5325 4329 c-194 -162 -472 -315 -782 -429 l-141 -53 18 -53 c10 -29
22 -74 26 -99 3 -26 12 -49 18 -51 6 -2 162 -5 346 -7 l335 -2 0 -125 0 -125
-343 0 -343 0 -5 -25 c-3 -14 -14 -58 -25 -98 -10 -40 -19 -76 -19 -80 0 -4
24 -15 53 -25 247 -86 482 -197 659 -312 101 -66 240 -171 246 -187 2 -4 7 -8
11 -8 5 0 8 389 8 865 0 476 0 865 -1 865 0 0 -28 -23 -61 -51z"/>
<path d="M3445 4193 c-191 -33 -318 -100 -434 -229 -188 -209 -226 -505 -99
-763 33 -68 60 -104 128 -172 73 -73 101 -94 180 -132 111 -53 169 -68 280
-72 374 -13 691 280 706 655 13 330 -197 612 -518 696 -58 14 -199 25 -243 17z
m187 -268 c218 -56 353 -273 313 -500 -13 -70 -65 -166 -121 -221 -90 -89
-205 -131 -334 -121 -155 12 -283 96 -349 232 -38 76 -48 124 -46 205 3 122
48 222 133 302 110 103 260 141 404 103z"/>
<path d="M563 3666 c-139 -83 -253 -153 -253 -156 1 -8 490 -295 502 -295 8 0
12 85 11 298 0 163 -2 299 -4 301 -2 2 -118 -64 -256 -148z"/>
<path d="M6222 3511 l0 -309 52 30 c28 17 107 65 176 105 309 184 293 173 273
189 -10 7 -21 14 -24 14 -3 0 -104 59 -223 130 -120 72 -226 135 -236 140 -18
10 -19 -1 -18 -299z"/>
<path d="M3127 2473 c-113 -303 -246 -544 -415 -754 -25 -31 -43 -60 -41 -65
3 -6 1719 -14 1719 -8 0 1 -16 19 -35 40 -38 43 -164 215 -189 260 -9 16 -33
56 -52 89 -77 133 -183 373 -239 543 -13 42 -20 52 -34 47 -9 -4 -55 -17 -103
-29 l-88 -21 0 -342 c0 -267 -3 -343 -12 -344 -16 -1 -231 -1 -238 0 -3 1 -5
148 -5 329 1 180 -1 334 -3 342 -2 10 -33 23 -90 37 -48 12 -94 24 -102 27
-12 5 -28 -29 -73 -151z"/>
<path d="M2089 1388 c-4 -14 -2 -302 2 -310 5 -7 471 -10 1430 -10 783 1 1427
1 1431 2 3 0 6 72 6 160 l1 160 -1435 0 c-789 0 -1434 -1 -1435 -2z"/>
<path d="M3222 800 c7 -22 294 -499 299 -500 7 0 192 307 197 327 2 7 8 13 13
13 5 0 9 4 9 10 0 5 19 40 41 77 23 38 43 71 46 76 2 4 -134 7 -302 7 -192 0
-305 -4 -303 -10z"/>
</g>
</svg>
