<svg style="position: absolute; width: 0; height: 0; overflow: hidden;" version="1.1" xmlns="http://www.w3.org/2000/svg"
  xmlns:xlink="http://www.w3.org/1999/xlink">
  <defs>
    <symbol id="icon-error" viewBox="0 0 16 16">
      <path d="M8 13.344q2.188 0 3.766-1.578t1.578-3.766-1.578-3.766-3.766-1.578-3.766 1.578-1.578 3.766 1.578 3.766 3.766 1.578zM8 1.344q2.75 0 4.703 1.953t1.953 4.703-1.953 4.703-4.703 1.953-4.703-1.953-1.953-4.703 1.953-4.703 4.703-1.953zM7.344 4.656h1.313v4h-1.313v-4zM7.344 10h1.313v1.344h-1.313v-1.344z"></path>
    </symbol>
    <symbol id="icon-check" viewBox="0 0 16 16">
      <path d="M6 10.781l7.063-7.063 0.938 0.938-8 8-3.719-3.719 0.938-0.938z"></path>
    </symbol>
    <symbol id="icon-add" viewBox="0 0 16 16">
      <path d="M12.656 8.656h-4v4h-1.313v-4h-4v-1.313h4v-4h1.313v4h4v1.313z"></path>
    </symbol>
    <symbol id="icon-back" viewBox="0 0 16 16">
      <path d="M13.344 7.344v1.313h-8.125l3.719 3.75-0.938 0.938-5.344-5.344 5.344-5.344 0.938 0.938-3.719 3.75h8.125z"></path>
    </symbol>
    <symbol id="icon-more" viewBox="0 0 16 16">
      <path d="M8 10.656q0.531 0 0.938 0.406t0.406 0.938-0.406 0.938-0.938 0.406-0.938-0.406-0.406-0.938 0.406-0.938 0.938-0.406zM8 6.656q0.531 0 0.938 0.406t0.406 0.938-0.406 0.938-0.938 0.406-0.938-0.406-0.406-0.938 0.406-0.938 0.938-0.406zM8 5.344q-0.531 0-0.938-0.406t-0.406-0.938 0.406-0.938 0.938-0.406 0.938 0.406 0.406 0.938-0.406 0.938-0.938 0.406z"></path>
    </symbol>
    <symbol id="icon-close" viewBox="0 0 16 16">
      <path d="M12.656 4.281l-3.719 3.719 3.719 3.719-0.938 0.938-3.719-3.719-3.719 3.719-0.938-0.938 3.719-3.719-3.719-3.719 0.938-0.938 3.719 3.719 3.719-3.719z"></path>
    </symbol>
    <symbol id="icon-delete" viewBox="0 0 16 16">
      <path d="M10.344 2.656h2.313v1.344h-9.313v-1.344h2.313l0.688-0.656h3.313zM5.344 6v6.656h5.313v-6.656h-5.313zM4 12.656v-8h8v8q0 0.531-0.406 0.938t-0.938 0.406h-5.313q-0.531 0-0.938-0.406t-0.406-0.938z"></path>
    </symbol>
    <symbol id="icon-add-list" viewBox="0 0 16 16">
      <path d="M14.344 7.656l1 1-4.656 4.688-3.031-3 1-1 2.031 2zM1.344 10.656v-1.313h5.313v1.313h-5.313zM9.344 4v1.344h-8v-1.344h8zM9.344 6.656v1.344h-8v-1.344h8z"></path>
    </symbol>
    <symbol id="icon-new-list" viewBox="0 0 16 16">
      <path d="M1.344 10.656v-1.313h5.313v1.313h-5.313zM12 9.344h2.656v1.313h-2.656v2.688h-1.344v-2.688h-2.656v-1.313h2.656v-2.688h1.344v2.688zM9.344 4v1.344h-8v-1.344h8zM9.344 6.656v1.344h-8v-1.344h8z"></path>
    </symbol>
    <symbol id="icon-duplicate" viewBox="0 0 16 16">
      <path d="M12.656 14v-9.344h-7.313v9.344h7.313zM12.656 3.344q0.531 0 0.938 0.391t0.406 0.922v9.344q0 0.531-0.406 0.938t-0.938 0.406h-7.313q-0.531 0-0.938-0.406t-0.406-0.938v-9.344q0-0.531 0.406-0.922t0.938-0.391h7.313zM10.656 0.656v1.344h-8v9.344h-1.313v-9.344q0-0.531 0.391-0.938t0.922-0.406h8z"></path>
    </symbol>
    <symbol id="icon-edit" viewBox="0 0 16 16">
      <path d="M13.813 4.688l-1.219 1.219-2.5-2.5 1.219-1.219q0.188-0.188 0.469-0.188t0.469 0.188l1.563 1.563q0.188 0.188 0.188 0.469t-0.188 0.469zM2 11.5l7.375-7.375 2.5 2.5-7.375 7.375h-2.5v-2.5z"></path>
    </symbol>
    <symbol id="icon-spinner" viewBox="0 0 16 16">
      <path d="M16 8c-0.020-1.045-0.247-2.086-0.665-3.038-0.417-0.953-1.023-1.817-1.766-2.53s-1.624-1.278-2.578-1.651c-0.953-0.374-1.978-0.552-2.991-0.531-1.013 0.020-2.021 0.24-2.943 0.646-0.923 0.405-1.758 0.992-2.449 1.712s-1.237 1.574-1.597 2.497c-0.361 0.923-0.533 1.914-0.512 2.895 0.020 0.981 0.234 1.955 0.627 2.847 0.392 0.892 0.961 1.7 1.658 2.368s1.523 1.195 2.416 1.543c0.892 0.348 1.851 0.514 2.799 0.493 0.949-0.020 1.89-0.227 2.751-0.608 0.862-0.379 1.642-0.929 2.287-1.604s1.154-1.472 1.488-2.335c0.204-0.523 0.342-1.069 0.415-1.622 0.019 0.001 0.039 0.002 0.059 0.002 0.552 0 1-0.448 1-1 0-0.028-0.001-0.056-0.004-0.083h0.004zM14.411 10.655c-0.367 0.831-0.898 1.584-1.55 2.206s-1.422 1.112-2.254 1.434c-0.832 0.323-1.723 0.476-2.608 0.454-0.884-0.020-1.759-0.215-2.56-0.57-0.801-0.354-1.526-0.867-2.125-1.495s-1.071-1.371-1.38-2.173c-0.31-0.801-0.457-1.66-0.435-2.512s0.208-1.694 0.551-2.464c0.342-0.77 0.836-1.468 1.441-2.044s1.321-1.029 2.092-1.326c0.771-0.298 1.596-0.438 2.416-0.416s1.629 0.202 2.368 0.532c0.74 0.329 1.41 0.805 1.963 1.387s0.988 1.27 1.272 2.011c0.285 0.74 0.418 1.532 0.397 2.32h0.004c-0.002 0.027-0.004 0.055-0.004 0.083 0 0.516 0.39 0.94 0.892 0.994-0.097 0.544-0.258 1.075-0.481 1.578z"></path>
    </symbol>
  </defs>
</svg>