<svg style="position: absolute; width: 0; height: 0; overflow: hidden;" version="1.1" xmlns="http://www.w3.org/2000/svg"
  xmlns:xlink="http://www.w3.org/1999/xlink">
  <defs>
    <symbol id="icon-error" viewBox="0 0 16 16">
      <path d="M8 13.344q2.188 0 3.766-1.578t1.578-3.766-1.578-3.766-3.766-1.578-3.766 1.578-1.578 3.766 1.578 3.766 3.766 1.578zM8 1.344q2.75 0 4.703 1.953t1.953 4.703-1.953 4.703-4.703 1.953-4.703-1.953-1.953-4.703 1.953-4.703 4.703-1.953zM7.344 4.656h1.313v4h-1.313v-4zM7.344 10h1.313v1.344h-1.313v-1.344z"></path>
    </symbol>
    <symbol id="icon-check" viewBox="0 0 16 16">
      <path d="M6 10.781l7.063-7.063 0.938 0.938-8 8-3.719-3.719 0.938-0.938z"></path>
    </symbol>
    <symbol id="icon-add" viewBox="0 0 16 16">
      <path d="M12.656 8.656h-4v4h-1.313v-4h-4v-1.313h4v-4h1.313v4h4v1.313z"></path>
    </symbol>
    <symbol id="icon-back" viewBox="0 0 16 16">
      <path d="M13.344 7.344v1.313h-8.125l3.719 3.75-0.938 0.938-5.344-5.344 5.344-5.344 0.938 0.938-3.719 3.75h8.125z"></path>
    </symbol>
    <symbol id="icon-more" viewBox="0 0 16 16">
      <path d="M8 10.656q0.531 0 0.938 0.406t0.406 0.938-0.406 0.938-0.938 0.406-0.938-0.406-0.406-0.938 0.406-0.938 0.938-0.406zM8 6.656q0.531 0 0.938 0.406t0.406 0.938-0.406 0.938-0.938 0.406-0.938-0.406-0.406-0.938 0.406-0.938 0.938-0.406zM8 5.344q-0.531 0-0.938-0.406t-0.406-0.938 0.406-0.938 0.938-0.406 0.938 0.406 0.406 0.938-0.406 0.938-0.938 0.406z"></path>
    </symbol>
    <symbol id="icon-close" viewBox="0 0 16 16">
      <path d="M12.656 4.281l-3.719 3.719 3.719 3.719-0.938 0.938-3.719-3.719-3.719 3.719-0.938-0.938 3.719-3.719-3.719-3.719 0.938-0.938 3.719 3.719 3.719-3.719z"></path>
    </symbol>
  </defs>
</svg>