<svg style="position: absolute; width: 0; height: 0; overflow: hidden;" version="1.1" xmlns="http://www.w3.org/2000/svg"
  xmlns:xlink="http://www.w3.org/1999/xlink">
  <defs>
    <symbol id="icon-error" viewBox="0 0 16 16">
      <path d="M8 13.344q2.188 0 3.766-1.578t1.578-3.766-1.578-3.766-3.766-1.578-3.766 1.578-1.578 3.766 1.578 3.766 3.766 1.578zM8 1.344q2.75 0 4.703 1.953t1.953 4.703-1.953 4.703-4.703 1.953-4.703-1.953-1.953-4.703 1.953-4.703 4.703-1.953zM7.344 4.656h1.313v4h-1.313v-4zM7.344 10h1.313v1.344h-1.313v-1.344z"></path>
    </symbol>
    <symbol id="icon-check" viewBox="0 0 16 16">
      <path d="M6 10.781l7.063-7.063 0.938 0.938-8 8-3.719-3.719 0.938-0.938z"></path>
    </symbol>
    <symbol id="icon-add" viewBox="0 0 16 16">
      <path d="M12.656 8.656h-4v4h-1.313v-4h-4v-1.313h4v-4h1.313v4h4v1.313z"></path>
    </symbol>
    <symbol id="icon-back" viewBox="0 0 16 16">
      <path d="M13.344 7.344v1.313h-8.125l3.719 3.75-0.938 0.938-5.344-5.344 5.344-5.344 0.938 0.938-3.719 3.75h8.125z"></path>
    </symbol>
    <symbol id="icon-more" viewBox="0 0 16 16">
      <path d="M8 10.656q0.531 0 0.938 0.406t0.406 0.938-0.406 0.938-0.938 0.406-0.938-0.406-0.406-0.938 0.406-0.938 0.938-0.406zM8 6.656q0.531 0 0.938 0.406t0.406 0.938-0.406 0.938-0.938 0.406-0.938-0.406-0.406-0.938 0.406-0.938 0.938-0.406zM8 5.344q-0.531 0-0.938-0.406t-0.406-0.938 0.406-0.938 0.938-0.406 0.938 0.406 0.406 0.938-0.406 0.938-0.938 0.406z"></path>
    </symbol>
    <symbol id="icon-close" viewBox="0 0 16 16">
      <path d="M12.656 4.281l-3.719 3.719 3.719 3.719-0.938 0.938-3.719-3.719-3.719 3.719-0.938-0.938 3.719-3.719-3.719-3.719 0.938-0.938 3.719 3.719 3.719-3.719z"></path>
    </symbol>
    <symbol id="icon-delete" viewBox="0 0 16 16">
      <path d="M10.344 2.656h2.313v1.344h-9.313v-1.344h2.313l0.688-0.656h3.313zM5.344 6v6.656h5.313v-6.656h-5.313zM4 12.656v-8h8v8q0 0.531-0.406 0.938t-0.938 0.406h-5.313q-0.531 0-0.938-0.406t-0.406-0.938z"></path>
    </symbol>
    <symbol id="icon-add-list" viewBox="0 0 16 16">
      <path d="M14.344 7.656l1 1-4.656 4.688-3.031-3 1-1 2.031 2zM1.344 10.656v-1.313h5.313v1.313h-5.313zM9.344 4v1.344h-8v-1.344h8zM9.344 6.656v1.344h-8v-1.344h8z"></path>
    </symbol>
    <symbol id="icon-new-list" viewBox="0 0 16 16">
      <path d="M1.344 10.656v-1.313h5.313v1.313h-5.313zM12 9.344h2.656v1.313h-2.656v2.688h-1.344v-2.688h-2.656v-1.313h2.656v-2.688h1.344v2.688zM9.344 4v1.344h-8v-1.344h8zM9.344 6.656v1.344h-8v-1.344h8z"></path>
    </symbol>
    <symbol id="icon-duplicate" viewBox="0 0 16 16">
      <path d="M12.656 14v-9.344h-7.313v9.344h7.313zM12.656 3.344q0.531 0 0.938 0.391t0.406 0.922v9.344q0 0.531-0.406 0.938t-0.938 0.406h-7.313q-0.531 0-0.938-0.406t-0.406-0.938v-9.344q0-0.531 0.406-0.922t0.938-0.391h7.313zM10.656 0.656v1.344h-8v9.344h-1.313v-9.344q0-0.531 0.391-0.938t0.922-0.406h8z"></path>
    </symbol>
    <symbol id="icon-edit" viewBox="0 0 16 16">
      <path d="M13.813 4.688l-1.219 1.219-2.5-2.5 1.219-1.219q0.188-0.188 0.469-0.188t0.469 0.188l1.563 1.563q0.188 0.188 0.188 0.469t-0.188 0.469zM2 11.5l7.375-7.375 2.5 2.5-7.375 7.375h-2.5v-2.5z"></path>
    </symbol>
  </defs>
</svg>