<svg xmlns="http://www.w3.org/2000/svg" xmlns:xlink="http://www.w3.org/1999/xlink" width="500" zoomAndPan="magnify" viewBox="0 0 375 374.999991" height="500" preserveAspectRatio="xMidYMid meet" version="1.0"><defs><g/><clipPath id="5c86b54ad7"><path d="M 276 242 L 325 242 L 325 278 L 276 278 Z M 276 242 " clip-rule="nonzero"/></clipPath><clipPath id="eabfeb9af8"><path d="M 263.46875 260.507812 L 311.953125 224.683594 L 324.816406 242.089844 L 276.332031 277.917969 Z M 263.46875 260.507812 " clip-rule="nonzero"/></clipPath><clipPath id="8d550f3e1a"><path d="M 287.679688 242.617188 L 324.753906 242.136719 L 276.332031 277.917969 Z M 287.679688 242.617188 " clip-rule="nonzero"/></clipPath><clipPath id="d2bb5955ca"><path d="M 0.238281 0 L 48.960938 0 L 48.960938 35.921875 L 0.238281 35.921875 Z M 0.238281 0 " clip-rule="nonzero"/></clipPath><clipPath id="a897273b31"><path d="M -12.53125 18.507812 L 35.953125 -17.316406 L 48.816406 0.0898438 L 0.332031 35.917969 Z M -12.53125 18.507812 " clip-rule="nonzero"/></clipPath><clipPath id="9f45daa327"><path d="M 11.679688 0.617188 L 48.753906 0.136719 L 0.332031 35.917969 Z M 11.679688 0.617188 " clip-rule="nonzero"/></clipPath><clipPath id="9f683ba5f2"><rect x="0" width="49" y="0" height="36"/></clipPath><clipPath id="65d510f2d9"><path d="M 49 241 L 99 241 L 99 277 L 49 277 Z M 49 241 " clip-rule="nonzero"/></clipPath><clipPath id="65881fa940"><path d="M 62.230469 224.394531 L 111.375 259.308594 L 98.839844 276.953125 L 49.695312 242.039062 Z M 62.230469 224.394531 " clip-rule="nonzero"/></clipPath><clipPath id="dbe162d3c5"><path d="M 86.773438 241.828125 L 98.777344 276.910156 L 49.695312 242.039062 Z M 86.773438 241.828125 " clip-rule="nonzero"/></clipPath><clipPath id="0bec470094"><path d="M 0.679688 0.679688 L 49.878906 0.679688 L 49.878906 35.960938 L 0.679688 35.960938 Z M 0.679688 0.679688 " clip-rule="nonzero"/></clipPath><clipPath id="4016192f89"><path d="M 13.230469 -16.605469 L 62.375 18.308594 L 49.839844 35.953125 L 0.695312 1.039062 Z M 13.230469 -16.605469 " clip-rule="nonzero"/></clipPath><clipPath id="88161cf1f6"><path d="M 37.773438 0.828125 L 49.777344 35.910156 L 0.695312 1.039062 Z M 37.773438 0.828125 " clip-rule="nonzero"/></clipPath><clipPath id="e126b22b5a"><rect x="0" width="50" y="0" height="36"/></clipPath><clipPath id="81450caf71"><path d="M 264 260 L 289 260 L 289 287 L 264 287 Z M 264 260 " clip-rule="nonzero"/></clipPath><clipPath id="07d0ead9a3"><path d="M 271.703125 260.082031 L 288.085938 280.820312 L 281.363281 286.128906 L 264.980469 265.390625 Z M 271.703125 260.082031 " clip-rule="nonzero"/></clipPath><clipPath id="5278b8939c"><path d="M 0.960938 0 L 24.238281 0 L 24.238281 26.320312 L 0.960938 26.320312 Z M 0.960938 0 " clip-rule="nonzero"/></clipPath><clipPath id="5ba186cfdd"><path d="M 7.703125 0.0820312 L 24.085938 20.820312 L 17.363281 26.128906 L 0.980469 5.390625 Z M 7.703125 0.0820312 " clip-rule="nonzero"/></clipPath><clipPath id="8a1d9c51c0"><rect x="0" width="25" y="0" height="27"/></clipPath><clipPath id="82a13bb220"><path d="M 88 260 L 112 260 L 112 287 L 88 287 Z M 88 260 " clip-rule="nonzero"/></clipPath><clipPath id="3b8559c99d"><path d="M 111.3125 265.230469 L 95.425781 286.351562 L 88.578125 281.199219 L 104.464844 260.078125 Z M 111.3125 265.230469 " clip-rule="nonzero"/></clipPath><clipPath id="ce7f2ec5a2"><path d="M 0.558594 0 L 23.359375 0 L 23.359375 26.558594 L 0.558594 26.558594 Z M 0.558594 0 " clip-rule="nonzero"/></clipPath><clipPath id="44a24eec40"><path d="M 23.3125 5.230469 L 7.425781 26.351562 L 0.578125 21.199219 L 16.464844 0.078125 Z M 23.3125 5.230469 " clip-rule="nonzero"/></clipPath><clipPath id="9e0127a117"><rect x="0" width="24" y="0" height="27"/></clipPath><clipPath id="af35072c03"><path d="M 41 292 L 121 292 L 121 358.878906 L 41 358.878906 Z M 41 292 " clip-rule="nonzero"/></clipPath><clipPath id="cd98647b59"><path d="M 255 293 L 334.226562 293 L 334.226562 358.878906 L 255 358.878906 Z M 255 293 " clip-rule="nonzero"/></clipPath><clipPath id="da2545a490"><path d="M 50.246094 172.386719 L 324.753906 172.386719 L 324.753906 238.46875 L 50.246094 238.46875 Z M 50.246094 172.386719 " clip-rule="nonzero"/></clipPath><clipPath id="8e113fc98b"><path d="M 0.246094 0.386719 L 274.753906 0.386719 L 274.753906 66.46875 L 0.246094 66.46875 Z M 0.246094 0.386719 " clip-rule="nonzero"/></clipPath><clipPath id="92c85d5956"><rect x="0" width="275" y="0" height="67"/></clipPath><clipPath id="9da142027b"><path d="M 149 277 L 175 277 L 175 301 L 149 301 Z M 149 277 " clip-rule="nonzero"/></clipPath><clipPath id="14baa5c81b"><path d="M 143.09375 274.714844 L 198.472656 241.648438 L 231.921875 297.671875 L 176.542969 330.738281 Z M 143.09375 274.714844 " clip-rule="nonzero"/></clipPath><clipPath id="f20c468835"><path d="M 143.09375 274.714844 L 198.472656 241.648438 L 231.921875 297.671875 L 176.542969 330.738281 Z M 143.09375 274.714844 " clip-rule="nonzero"/></clipPath><clipPath id="b691411a65"><path d="M 149 261 L 183 261 L 183 279 L 149 279 Z M 149 261 " clip-rule="nonzero"/></clipPath><clipPath id="12a32a233c"><path d="M 143.09375 274.714844 L 198.472656 241.648438 L 231.921875 297.671875 L 176.542969 330.738281 Z M 143.09375 274.714844 " clip-rule="nonzero"/></clipPath><clipPath id="478deb6e81"><path d="M 143.09375 274.714844 L 198.472656 241.648438 L 231.921875 297.671875 L 176.542969 330.738281 Z M 143.09375 274.714844 " clip-rule="nonzero"/></clipPath><clipPath id="d9bfd8fa6e"><path d="M 206 271 L 222 271 L 222 304 L 206 304 Z M 206 271 " clip-rule="nonzero"/></clipPath><clipPath id="0f71f13a0f"><path d="M 143.09375 274.714844 L 198.472656 241.648438 L 231.921875 297.671875 L 176.542969 330.738281 Z M 143.09375 274.714844 " clip-rule="nonzero"/></clipPath><clipPath id="3445956ef2"><path d="M 143.09375 274.714844 L 198.472656 241.648438 L 231.921875 297.671875 L 176.542969 330.738281 Z M 143.09375 274.714844 " clip-rule="nonzero"/></clipPath><clipPath id="424c0de18c"><path d="M 183 270 L 208 270 L 208 300 L 183 300 Z M 183 270 " clip-rule="nonzero"/></clipPath><clipPath id="4492050e08"><path d="M 143.09375 274.714844 L 198.472656 241.648438 L 231.921875 297.671875 L 176.542969 330.738281 Z M 143.09375 274.714844 " clip-rule="nonzero"/></clipPath><clipPath id="adeb4df55e"><path d="M 143.09375 274.714844 L 198.472656 241.648438 L 231.921875 297.671875 L 176.542969 330.738281 Z M 143.09375 274.714844 " clip-rule="nonzero"/></clipPath><clipPath id="31d206a7cd"><path d="M 185 295 L 219 295 L 219 311 L 185 311 Z M 185 295 " clip-rule="nonzero"/></clipPath><clipPath id="2e5f37aa67"><path d="M 143.09375 274.714844 L 198.472656 241.648438 L 231.921875 297.671875 L 176.542969 330.738281 Z M 143.09375 274.714844 " clip-rule="nonzero"/></clipPath><clipPath id="9271757c16"><path d="M 143.09375 274.714844 L 198.472656 241.648438 L 231.921875 297.671875 L 176.542969 330.738281 Z M 143.09375 274.714844 " clip-rule="nonzero"/></clipPath><clipPath id="1f3d7aeb11"><path d="M 168 265 L 188 265 L 188 301 L 168 301 Z M 168 265 " clip-rule="nonzero"/></clipPath><clipPath id="b4ed7e7a22"><path d="M 143.09375 274.714844 L 198.472656 241.648438 L 231.921875 297.671875 L 176.542969 330.738281 Z M 143.09375 274.714844 " clip-rule="nonzero"/></clipPath><clipPath id="bbae7e2497"><path d="M 143.09375 274.714844 L 198.472656 241.648438 L 231.921875 297.671875 L 176.542969 330.738281 Z M 143.09375 274.714844 " clip-rule="nonzero"/></clipPath><clipPath id="8c907c79a2"><rect x="0" width="252" y="0" height="47"/></clipPath><clipPath id="9cb17392f7"><rect x="0" width="154" y="0" height="23"/></clipPath></defs><g clip-path="url(#5c86b54ad7)"><g clip-path="url(#eabfeb9af8)"><g clip-path="url(#8d550f3e1a)"><g transform="matrix(1, 0, 0, 1, 276, 242)"><g clip-path="url(#9f683ba5f2)"><g clip-path="url(#d2bb5955ca)"><g clip-path="url(#a897273b31)"><g clip-path="url(#9f45daa327)"><path fill="#fffefe" d="M -12.53125 18.507812 L 35.882812 -17.265625 L 48.746094 0.140625 L 0.332031 35.917969 Z M -12.53125 18.507812 " fill-opacity="1" fill-rule="nonzero"/></g></g></g></g></g></g></g></g><g clip-path="url(#65d510f2d9)"><g clip-path="url(#65881fa940)"><g clip-path="url(#dbe162d3c5)"><g transform="matrix(1, 0, 0, 1, 49, 241)"><g clip-path="url(#e126b22b5a)"><g clip-path="url(#0bec470094)"><g clip-path="url(#4016192f89)"><g clip-path="url(#88161cf1f6)"><path fill="#fffefe" d="M 13.230469 -16.605469 L 62.304688 18.257812 L 49.769531 35.90625 L 0.695312 1.039062 Z M 13.230469 -16.605469 " fill-opacity="1" fill-rule="nonzero"/></g></g></g></g></g></g></g></g><g clip-path="url(#81450caf71)"><g clip-path="url(#07d0ead9a3)"><g transform="matrix(1, 0, 0, 1, 264, 260)"><g clip-path="url(#8a1d9c51c0)"><g clip-path="url(#5278b8939c)"><g clip-path="url(#5ba186cfdd)"><path fill="#fffefe" d="M 7.703125 0.0820312 L 24.09375 20.828125 L 17.371094 26.140625 L 0.980469 5.390625 Z M 7.703125 0.0820312 " fill-opacity="1" fill-rule="nonzero"/></g></g></g></g></g></g><g clip-path="url(#82a13bb220)"><g clip-path="url(#3b8559c99d)"><g transform="matrix(1, 0, 0, 1, 88, 260)"><g clip-path="url(#9e0127a117)"><g clip-path="url(#ce7f2ec5a2)"><g clip-path="url(#44a24eec40)"><path fill="#fffefe" d="M 23.3125 5.230469 L 7.417969 26.363281 L 0.570312 21.210938 L 16.464844 0.078125 Z M 23.3125 5.230469 " fill-opacity="1" fill-rule="nonzero"/></g></g></g></g></g></g><path fill="#ffffff" d="M 187.667969 338.289062 C 186.945312 337.855469 186.25 337.449219 185.5625 337.019531 C 172.351562 328.722656 160.824219 318.4375 150.171875 307.113281 C 144.367188 300.941406 138.949219 294.4375 133.628906 287.851562 C 131.777344 285.558594 131.648438 286.21875 133.75 283.742188 C 147.496094 267.527344 161.269531 251.335938 175.050781 235.152344 C 178.871094 230.664062 182.777344 226.25 186.585938 221.75 C 187.460938 220.714844 187.90625 220.710938 188.832031 221.757812 C 197.140625 231.152344 205.117188 240.828125 213.234375 250.386719 C 222.691406 261.523438 232.144531 272.664062 241.648438 283.757812 C 242.738281 285.027344 243.15625 285.792969 241.859375 287.386719 C 231.082031 300.644531 219.863281 313.46875 206.734375 324.496094 C 201.066406 329.257812 195.140625 333.6875 188.816406 337.558594 C 188.449219 337.785156 188.089844 338.019531 187.667969 338.289062 Z M 187.667969 338.289062 " fill-opacity="1" fill-rule="nonzero"/><path fill="#ffffff" d="M 60.648438 336.15625 C 66.902344 318.476562 75.320312 302.632812 88.035156 289.207031 C 95.40625 281.421875 102.613281 273.488281 110.449219 266.128906 C 103.746094 275.550781 97.472656 285.242188 91.753906 295.34375 C 94.929688 291.839844 98.15625 288.378906 101.269531 284.816406 C 119.800781 263.601562 137.628906 241.800781 155.167969 219.761719 C 171.066406 199.78125 186.125 179.171875 201.15625 158.542969 C 211.90625 143.792969 223.042969 129.328125 233.949219 114.695312 C 236.925781 110.699219 239.25 106.375 240.265625 101.378906 C 240.777344 98.867188 240.480469 96.757812 238.679688 94.992188 C 236.832031 93.183594 236.101562 91.113281 235.964844 88.503906 C 235.679688 83.097656 233.625 78.28125 230.179688 74.070312 C 229.445312 73.171875 228.789062 72.792969 227.484375 73.175781 C 222.777344 74.558594 218.109375 72.027344 216.699219 67.523438 C 215.226562 62.816406 217.558594 57.679688 221.941406 55.988281 C 226.640625 54.175781 231.910156 56.230469 233.847656 60.640625 C 234.445312 61.996094 234.800781 63.5 234.390625 64.863281 C 233.804688 66.8125 234.859375 67.738281 236.121094 68.738281 C 240.882812 72.519531 245.726562 76.207031 250.371094 80.132812 C 261.769531 89.777344 272.601562 100.058594 283.738281 110 C 289.539062 115.179688 295.324219 120.375 301.078125 125.613281 C 302.480469 126.890625 303.777344 127.269531 305.75 126.71875 C 310.5625 125.375 314.847656 127.804688 316.351562 132.347656 C 317.824219 136.800781 315.699219 141.640625 311.457031 143.496094 C 306.953125 145.46875 301.804688 143.875 299.503906 139.816406 C 298.738281 138.460938 298.378906 136.992188 298.484375 135.480469 C 298.578125 134.109375 297.980469 133.257812 296.992188 132.457031 C 293.457031 129.589844 289.308594 128.019531 285.023438 126.738281 C 281.355469 125.644531 277.632812 124.777344 273.828125 124.308594 C 272.578125 124.15625 271.300781 123.984375 270.347656 123.0625 C 269.382812 122.136719 268.722656 122.417969 267.90625 123.320312 C 261.769531 130.117188 255.519531 136.8125 249.445312 143.660156 C 234.128906 160.933594 218.886719 178.269531 203.613281 195.578125 C 198.257812 201.640625 192.886719 207.691406 187.628906 213.839844 C 185.355469 216.503906 182.019531 218.023438 178.972656 219.769531 C 176.226562 221.34375 173.414062 222.796875 170.257812 224.503906 C 201.355469 186.679688 233.839844 150.683594 266.207031 113.84375 C 261.699219 113.816406 257.9375 114.550781 254.273438 115.800781 C 247.667969 118.054688 242.488281 122.40625 237.898438 127.464844 C 230.101562 136.070312 223.132812 145.355469 216.089844 154.582031 C 202.574219 172.289062 190.605469 191.089844 177.464844 209.058594 C 168.796875 220.910156 159.472656 232.25 150.203125 243.632812 C 133.132812 264.601562 115.714844 285.273438 97.449219 305.222656 C 88.109375 315.425781 77.421875 323.984375 66.199219 331.949219 C 64.410156 333.21875 62.703125 334.597656 60.648438 336.15625 Z M 242 84.710938 C 252.964844 98.042969 265.492188 109.71875 279.269531 120.074219 C 267.855469 107.226562 255.53125 95.332031 242 84.710938 Z M 242 84.710938 " fill-opacity="1" fill-rule="nonzero"/><path fill="#ffffff" d="M 263.832031 253.269531 C 259.414062 248.007812 254.976562 242.746094 250.5625 237.46875 C 239.097656 223.753906 227.640625 210.035156 216.175781 196.320312 C 214.382812 194.171875 214.433594 192.039062 216.328125 189.921875 C 225.859375 179.261719 235.28125 168.5 244.5 157.566406 C 245.496094 156.382812 246.351562 155.957031 247.988281 156.40625 C 255.800781 158.554688 263.777344 159.859375 271.84375 160.59375 C 273.109375 160.707031 273.699219 160.984375 273.773438 162.421875 C 274.570312 177.332031 275.449219 192.238281 274.207031 207.171875 C 272.9375 222.371094 270.015625 237.214844 264.820312 251.578125 C 264.652344 252.046875 264.460938 252.511719 264.253906 252.96875 C 264.210938 253.0625 264.0625 253.109375 263.832031 253.269531 Z M 263.832031 253.269531 " fill-opacity="1" fill-rule="nonzero"/><path fill="#ffffff" d="M 110.796875 253.519531 C 109.125 249.421875 107.90625 245.152344 106.671875 240.886719 C 100.613281 219.949219 99.570312 198.53125 100.488281 176.921875 C 100.6875 172.285156 100.945312 167.648438 101.074219 163.007812 C 101.113281 161.523438 101.464844 160.835938 103.128906 160.6875 C 111.570312 159.925781 119.914062 158.542969 128.082031 156.25 C 129.316406 155.90625 129.832031 156.566406 130.441406 157.253906 C 134.757812 162.144531 139.074219 167.039062 143.371094 171.945312 C 148.828125 178.171875 154.242188 184.441406 159.742188 190.628906 C 160.824219 191.84375 160.945312 192.558594 159.824219 193.941406 C 143.894531 213.570312 127.976562 233.207031 111.839844 252.667969 C 111.578125 252.988281 111.410156 253.441406 110.796875 253.519531 Z M 110.796875 253.519531 " fill-opacity="1" fill-rule="nonzero"/><path fill="#ffffff" d="M 108.992188 113.84375 C 110.886719 115.9375 112.425781 117.652344 113.980469 119.351562 C 131.515625 138.5 148.78125 157.886719 166.097656 177.234375 C 166.476562 177.65625 166.855469 178.070312 167.222656 178.5 C 168.894531 180.457031 168.871094 182.4375 167.160156 184.441406 C 164.675781 187.339844 164.710938 187.3125 162.167969 184.417969 C 144.371094 164.15625 126.460938 143.992188 108.121094 124.214844 C 106.835938 122.828125 105.910156 122.089844 104.058594 123.652344 C 102.574219 124.902344 100.328125 124.46875 98.425781 124.808594 C 92.726562 125.839844 87.164062 127.277344 81.984375 129.949219 C 80.984375 130.464844 80.035156 131.078125 79.070312 131.660156 C 77.316406 132.710938 76.648438 134.183594 76.589844 136.304688 C 76.46875 140.613281 72.867188 143.960938 68.351562 144.382812 C 63.988281 144.789062 59.886719 141.886719 58.742188 137.582031 C 57.628906 133.390625 59.644531 128.902344 63.476562 127.1875 C 65.804688 126.144531 68.261719 125.996094 70.632812 126.871094 C 71.730469 127.28125 72.355469 127.046875 73.117188 126.371094 C 80.550781 119.726562 87.972656 113.066406 95.453125 106.476562 C 109.5625 94.042969 123.101562 80.949219 138.132812 69.582031 C 138.632812 69.203125 139.058594 68.722656 139.585938 68.386719 C 140.785156 67.628906 141.066406 66.660156 140.914062 65.222656 C 140.453125 60.96875 142.457031 57.527344 145.992188 56.074219 C 149.789062 54.511719 154.113281 55.472656 156.648438 58.445312 C 159.320312 61.578125 159.707031 65.917969 157.613281 69.300781 C 155.53125 72.679688 151.457031 74.371094 147.503906 73.269531 C 146.085938 72.875 145.4375 73.460938 144.703125 74.394531 C 141.132812 78.929688 139.179688 84.058594 139.085938 89.839844 C 139.0625 91.296875 138.769531 92.539062 137.65625 93.546875 C 134.703125 96.222656 134.304688 99.386719 135.511719 103.101562 C 136.851562 107.230469 138.914062 110.914062 141.539062 114.300781 C 151.882812 127.632812 162.753906 140.53125 173.546875 153.496094 C 176.15625 156.628906 178.730469 159.789062 181.371094 162.894531 C 182.164062 163.828125 182.417969 164.507812 181.445312 165.554688 C 179.914062 167.207031 178.46875 168.960938 177.195312 170.816406 C 176.335938 172.066406 175.839844 171.636719 175.136719 170.8125 C 171.390625 166.425781 167.632812 162.046875 163.878906 157.667969 C 156 148.476562 148.4375 139.015625 140.179688 130.15625 C 135.207031 124.824219 130.058594 119.6875 123.207031 116.691406 C 118.839844 114.785156 114.292969 113.84375 108.992188 113.84375 Z M 96.296875 119.851562 C 109.957031 109.347656 122.535156 97.726562 133.503906 84.425781 C 119.957031 95.039062 107.6875 106.992188 96.296875 119.851562 Z M 96.296875 119.851562 " fill-opacity="1" fill-rule="nonzero"/><path fill="#ffffff" d="M 282.628906 294.269531 C 277.410156 284.777344 271.464844 275.78125 265.367188 266.792969 C 266.226562 267.589844 267.097656 268.375 267.941406 269.1875 C 268.796875 270.015625 269.632812 270.867188 270.464844 271.71875 C 278.71875 280.140625 286.832031 288.691406 294.351562 297.792969 C 302.113281 307.191406 307.269531 318.046875 311.90625 329.191406 C 312.835938 331.425781 313.8125 333.640625 314.476562 336.328125 C 312.292969 334.589844 310.367188 333.035156 308.417969 331.511719 C 301.707031 326.261719 294.484375 321.671875 288.265625 315.78125 C 278.734375 306.75 270.039062 296.941406 261.421875 287.066406 C 240.753906 263.394531 220.878906 239.050781 200.625 215.03125 C 196.742188 210.429688 196.664062 212.097656 200.835938 207.210938 C 201.855469 206.019531 203.070312 204.992188 204.035156 203.765625 C 204.800781 202.796875 205.15625 203.058594 205.816406 203.855469 C 211.550781 210.75 217.332031 217.605469 223.085938 224.484375 C 241.792969 246.855469 260.195312 269.484375 279.71875 291.160156 C 280.667969 292.214844 281.660156 293.234375 282.628906 294.269531 Z M 282.628906 294.269531 " fill-opacity="1" fill-rule="nonzero"/><path fill="#ffffff" d="M 252.800781 297.8125 C 252.507812 298.230469 252.265625 298.59375 252.003906 298.945312 C 246.160156 306.730469 239.703125 313.996094 232.949219 320.992188 C 220.582031 333.796875 207.046875 345.242188 192.464844 355.457031 C 187.652344 358.828125 187.632812 358.855469 182.753906 355.425781 C 160.617188 339.84375 140.972656 321.585938 123.878906 300.589844 C 121.808594 298.046875 121.808594 298.027344 123.875 295.53125 C 124.992188 294.179688 126.230469 292.917969 127.285156 291.519531 C 128 290.570312 128.417969 290.699219 129.085938 291.527344 C 131.800781 294.894531 134.496094 298.28125 137.320312 301.5625 C 150.679688 317.082031 165.429688 331.089844 182.78125 342.105469 C 188.679688 345.851562 186.40625 345.902344 192.410156 342.121094 C 210.257812 330.882812 225.261719 316.441406 238.691406 300.285156 C 241.136719 297.34375 243.601562 294.421875 245.949219 291.40625 C 246.769531 290.351562 247.164062 290.554688 247.847656 291.453125 C 249.210938 293.25 250.664062 294.980469 252.070312 296.746094 C 252.335938 297.078125 252.554688 297.449219 252.800781 297.8125 Z M 252.800781 297.8125 " fill-opacity="1" fill-rule="nonzero"/><path fill="#ffffff" d="M 274.46875 265.4375 C 272.335938 263.28125 270.652344 261.105469 268.914062 258.972656 C 268.453125 258.414062 268.414062 257.9375 268.683594 257.269531 C 274.726562 242.269531 278.140625 226.640625 279.691406 210.589844 C 281.019531 196.820312 280.824219 183.023438 280.070312 169.230469 C 279.851562 165.285156 279.605469 161.339844 279.445312 157.390625 C 279.398438 156.164062 278.988281 155.679688 277.699219 155.5625 C 269.195312 154.8125 260.78125 153.460938 252.445312 151.605469 C 251.851562 151.476562 251.207031 151.492188 250.671875 150.96875 C 253.222656 147.707031 256.019531 144.667969 258.773438 141.589844 C 259.378906 140.917969 259.949219 140.859375 260.757812 141.027344 C 271.023438 143.203125 281.40625 144.425781 291.894531 144.722656 C 292.984375 144.753906 293.261719 145.125 293.257812 146.152344 C 293.246094 172.074219 292.859375 197.96875 288.183594 223.582031 C 285.589844 237.785156 281.101562 251.375 274.972656 264.4375 C 274.84375 264.714844 274.699219 264.984375 274.46875 265.4375 Z M 274.46875 265.4375 " fill-opacity="1" fill-rule="nonzero"/><path fill="#ffffff" d="M 100.753906 265.761719 C 97.941406 260.507812 95.933594 255.175781 93.9375 249.839844 C 87.546875 232.761719 84.894531 214.933594 83.355469 196.886719 C 81.917969 180.054688 81.75 163.183594 81.777344 146.308594 C 81.78125 145.046875 82.15625 144.78125 83.355469 144.734375 C 93.828125 144.316406 104.238281 143.304688 114.503906 141.078125 C 115.078125 140.953125 115.6875 140.664062 116.238281 141.289062 C 119.058594 144.460938 121.90625 147.609375 124.925781 150.964844 C 119.695312 152.535156 114.648438 153.363281 109.605469 154.195312 C 105.457031 154.878906 101.273438 155.296875 97.082031 155.589844 C 95.921875 155.671875 95.492188 156.046875 95.433594 157.265625 C 94.734375 172.175781 93.84375 187.085938 94.613281 202.023438 C 95.59375 221.117188 98.960938 239.722656 106.246094 257.5 C 106.5625 258.265625 106.632812 258.769531 105.996094 259.476562 C 104.242188 261.429688 102.621094 263.503906 100.753906 265.761719 Z M 100.753906 265.761719 " fill-opacity="1" fill-rule="nonzero"/><path fill="#ffffff" d="M 155.300781 114.863281 C 162.65625 112.238281 169.6875 109.753906 176.554688 106.828125 C 177.730469 106.324219 178.277344 105.675781 178.4375 104.398438 C 179.433594 96.304688 180.46875 88.21875 181.578125 80.144531 C 181.796875 78.546875 181.308594 77.746094 179.933594 76.90625 C 174.121094 73.351562 171.722656 66.667969 173.769531 60.246094 C 175.722656 54.113281 181.863281 50.027344 188.46875 50.46875 C 195.296875 50.921875 200.503906 55.414062 201.777344 61.945312 C 202.917969 67.804688 200.335938 73.96875 195.316406 76.601562 C 193.664062 77.46875 193.464844 78.46875 193.652344 80 C 194.605469 87.652344 195.625 95.300781 196.398438 102.972656 C 196.628906 105.230469 197.542969 106.296875 199.585938 107.117188 C 205.929688 109.664062 212.328125 112.035156 218.785156 114.265625 C 219.296875 114.445312 219.8125 114.628906 220.507812 114.871094 C 217.910156 118.199219 215.382812 121.382812 212.929688 124.625 C 212.277344 125.488281 211.679688 125.113281 210.964844 124.878906 C 203.4375 122.417969 196.207031 119.246094 189.125 115.730469 C 187.921875 115.132812 186.992188 115.167969 185.820312 115.792969 C 179.109375 119.363281 172.054688 122.152344 164.949219 124.820312 C 164.296875 125.066406 163.847656 125.207031 163.328125 124.570312 C 160.714844 121.367188 158.066406 118.199219 155.300781 114.863281 Z M 196.308594 64.800781 C 196.335938 60.035156 192.363281 55.953125 187.683594 55.9375 C 182.824219 55.917969 178.9375 59.867188 178.921875 64.84375 C 178.90625 69.261719 182.96875 73.175781 187.613281 73.210938 C 192.113281 73.246094 196.285156 69.210938 196.308594 64.800781 Z M 196.308594 64.800781 " fill-opacity="1" fill-rule="nonzero"/><g clip-path="url(#af35072c03)"><path fill="#ffffff" d="M 120.570312 294.632812 C 117.585938 298.214844 114.613281 301.808594 111.609375 305.382812 C 105.640625 312.488281 99.558594 319.5 93.714844 326.707031 C 90.351562 330.855469 86.136719 333.757812 81.601562 336.375 C 68.417969 343.988281 54.910156 351.007812 41.074219 358.582031 C 49.121094 333.460938 59.859375 310.519531 79.730469 292.878906 C 69.53125 306.734375 63.347656 322.445312 58.308594 339.085938 C 79.90625 325.171875 99.683594 309.152344 120.570312 294.632812 Z M 120.570312 294.632812 " fill-opacity="1" fill-rule="nonzero"/></g><g clip-path="url(#cd98647b59)"><path fill="#ffffff" d="M 295.710938 293.304688 C 315.566406 310.71875 325.859375 333.722656 334.007812 358.617188 C 332.542969 357.824219 331.566406 357.308594 330.601562 356.773438 C 317.339844 349.402344 303.933594 342.292969 290.839844 334.621094 C 286.25 331.933594 282.699219 328.171875 279.332031 324.191406 C 271.347656 314.765625 263.417969 305.292969 255.472656 295.835938 C 255.316406 295.652344 255.195312 295.4375 255.203125 295.050781 C 275.707031 309.585938 295.425781 325.210938 316.753906 339.0625 C 311.953125 322.632812 305.847656 307.074219 295.710938 293.304688 Z M 295.710938 293.304688 " fill-opacity="1" fill-rule="nonzero"/></g><path fill="#ffffff" d="M 167.726562 129.8125 C 171.382812 128.371094 175.003906 127.007812 178.570312 125.507812 C 181.222656 124.394531 183.820312 123.140625 186.40625 121.871094 C 187.273438 121.449219 187.953125 121.402344 188.851562 121.859375 C 194.878906 124.945312 201.144531 127.480469 207.5625 129.617188 C 208.820312 130.035156 208.847656 130.28125 208.046875 131.285156 C 201.960938 138.925781 195.941406 146.621094 189.886719 154.289062 C 189.480469 154.804688 189.214844 155.761719 188.285156 154.636719 C 181.613281 146.582031 174.894531 138.570312 168.195312 130.539062 C 168.039062 130.351562 167.925781 130.125 167.726562 129.8125 Z M 167.726562 129.8125 " fill-opacity="1" fill-rule="nonzero"/><path fill="#ffffff" d="M 317.390625 47.28125 C 315.421875 47.84375 313.90625 46.5625 312.296875 44.980469 C 309.175781 41.917969 306.28125 38.589844 302.628906 36.105469 C 302.441406 35.976562 302.277344 35.75 302.195312 35.535156 C 299.660156 28.914062 303.902344 20.359375 310.78125 18.921875 C 324.144531 16.125 333.113281 26.746094 330.757812 37.707031 C 329.289062 44.535156 325.5 47.292969 317.390625 47.28125 Z M 315.566406 23.402344 C 321.339844 26.050781 324.8125 30.222656 327.164062 35.515625 C 328.105469 28.109375 322.976562 22.488281 315.566406 23.402344 Z M 315.566406 23.402344 " fill-opacity="1" fill-rule="nonzero"/><path fill="#ffffff" d="M 57.3125 47.253906 C 46.542969 47.242188 40.972656 37.949219 45.269531 27.925781 C 48.570312 20.222656 58.578125 16.164062 66.3125 19.496094 C 70.457031 21.285156 72.636719 24.636719 73.222656 29.0625 C 73.289062 29.558594 73.285156 30.0625 73.28125 30.566406 C 73.257812 33.5 73.171875 36.148438 70.105469 38.105469 C 67.523438 39.75 65.449219 42.28125 63.386719 44.625 C 61.578125 46.679688 59.609375 47.816406 57.3125 47.253906 Z M 58.789062 23.492188 C 51.796875 22.816406 47.019531 28.285156 48.085938 35.753906 C 50.191406 30.222656 53.796875 26.265625 58.789062 23.492188 Z M 58.789062 23.492188 " fill-opacity="1" fill-rule="nonzero"/><path fill="#ffffff" d="M 98.773438 99.304688 C 96.996094 96.953125 95.359375 94.738281 93.667969 92.570312 C 93.167969 91.933594 93.269531 91.519531 93.777344 90.972656 C 98.515625 85.867188 103.21875 80.746094 109.203125 77.011719 C 110.164062 76.410156 110.746094 76.351562 111.546875 77.242188 C 112.933594 78.773438 114.453125 80.1875 115.933594 81.628906 C 116.597656 82.273438 116.800781 82.675781 115.917969 83.476562 C 110.210938 88.652344 104.585938 93.917969 98.773438 99.304688 Z M 98.773438 99.304688 " fill-opacity="1" fill-rule="nonzero"/><path fill="#ffffff" d="M 264.863281 76.308594 C 265.105469 76.476562 265.34375 76.667969 265.601562 76.824219 C 271.605469 80.507812 276.488281 85.449219 281.117188 90.679688 C 281.785156 91.4375 282.007812 92.035156 281.273438 92.9375 C 279.925781 94.585938 278.675781 96.320312 277.457031 98.066406 C 276.875 98.894531 276.542969 99.085938 275.667969 98.28125 C 270.277344 93.300781 264.820312 88.398438 259.378906 83.476562 C 258.90625 83.050781 258.292969 82.707031 259.011719 81.992188 C 260.789062 80.222656 262.558594 78.441406 264.332031 76.671875 C 264.460938 76.546875 264.632812 76.464844 264.863281 76.308594 Z M 264.863281 76.308594 " fill-opacity="1" fill-rule="nonzero"/><path fill="#ffffff" d="M 270.363281 70.953125 C 270.574219 71.097656 270.777344 71.242188 270.984375 71.375 C 276.722656 75.089844 281.597656 79.742188 285.84375 85.070312 C 286.035156 85.3125 286.382812 85.726562 286.3125 85.832031 C 285.273438 87.382812 284.230469 88.933594 283.066406 90.382812 C 282.742188 90.785156 282.476562 90.140625 282.289062 89.871094 C 278.140625 83.921875 273.167969 78.898438 266.488281 75.785156 C 266.085938 75.597656 265.570312 75.363281 266.070312 74.851562 C 267.296875 73.597656 268.574219 72.394531 269.84375 71.183594 C 269.964844 71.066406 270.167969 71.035156 270.363281 70.953125 Z M 270.363281 70.953125 " fill-opacity="1" fill-rule="nonzero"/><path fill="#ffffff" d="M 99.476562 64.683594 C 99.054688 64.984375 98.710938 65.21875 98.375 65.46875 C 95.269531 67.78125 91.902344 69.734375 89.199219 72.582031 C 87.558594 74.3125 85.972656 76.082031 84.726562 78.109375 C 84.128906 79.078125 83.859375 79.011719 83.199219 78.15625 C 80.160156 74.230469 80.125 74.242188 83.34375 70.5625 C 86.480469 66.976562 89.894531 63.6875 93.617188 60.703125 C 94.519531 59.980469 95.058594 60.019531 95.796875 60.820312 C 96.722656 61.835938 97.746094 62.757812 98.714844 63.734375 C 98.972656 63.992188 99.175781 64.304688 99.476562 64.683594 Z M 99.476562 64.683594 " fill-opacity="1" fill-rule="nonzero"/><path fill="#ffffff" d="M 109.542969 75.394531 C 106.984375 76.65625 104.632812 77.972656 102.492188 79.597656 C 98.808594 82.394531 95.824219 85.863281 93.230469 89.65625 C 92.472656 90.765625 92.191406 90.660156 91.464844 89.652344 C 88.859375 86.027344 88.832031 86.066406 91.714844 82.742188 C 95.34375 78.550781 99.398438 74.847656 103.953125 71.667969 C 105.011719 70.929688 105.652344 71 106.433594 71.957031 C 107.378906 73.109375 108.429688 74.171875 109.542969 75.394531 Z M 109.542969 75.394531 " fill-opacity="1" fill-rule="nonzero"/><path fill="#ffffff" d="M 287.289062 84.855469 C 283.71875 78.28125 278.457031 73.851562 272.269531 70.4375 C 271.207031 69.851562 271.164062 69.460938 272.015625 68.734375 C 272.445312 68.371094 272.835938 67.960938 273.234375 67.5625 C 275.527344 65.242188 275.546875 65.214844 278.097656 67.128906 C 282.527344 70.449219 286.421875 74.335938 290.023438 78.53125 C 290.738281 79.367188 290.9375 79.984375 290.113281 80.921875 C 289.136719 82.035156 288.363281 83.335938 287.289062 84.855469 Z M 287.289062 84.855469 " fill-opacity="1" fill-rule="nonzero"/><path fill="#ffffff" d="M 291.726562 78.78125 C 288.132812 72.175781 282.683594 67.980469 276.601562 64.527344 C 276.648438 64.378906 276.648438 64.308594 276.683594 64.269531 C 281.832031 58.480469 279.914062 58.792969 285.539062 63.308594 C 288.964844 66.0625 291.734375 69.472656 294.558594 72.820312 C 295.136719 73.503906 295.230469 73.976562 294.609375 74.730469 C 293.621094 75.925781 292.800781 77.253906 291.726562 78.78125 Z M 291.726562 78.78125 " fill-opacity="1" fill-rule="nonzero"/><path fill="#ffffff" d="M 79.40625 73.105469 C 79.164062 72.667969 79.035156 72.378906 78.859375 72.125 C 78.03125 70.949219 77.203125 69.773438 76.34375 68.621094 C 75.9375 68.078125 76.203125 67.6875 76.542969 67.296875 C 80.238281 63.035156 83.804688 58.652344 88.292969 55.148438 C 89.238281 54.414062 89.730469 54.535156 90.441406 55.324219 C 91.320312 56.300781 92.265625 57.226562 93.234375 58.117188 C 93.84375 58.679688 93.960938 58.953125 93.09375 59.4375 C 87.703125 62.433594 83.628906 66.800781 80.304688 71.925781 C 80.113281 72.222656 79.878906 72.492188 79.40625 73.105469 Z M 79.40625 73.105469 " fill-opacity="1" fill-rule="nonzero"/><path fill="#ffffff" d="M 104.628906 69.707031 C 97.78125 73.019531 92.914062 77.796875 89.101562 83.699219 C 88.402344 84.785156 87.9375 85.058594 87.25 83.738281 C 86.878906 83.019531 86.5 82.203125 85.894531 81.722656 C 84.398438 80.527344 84.9375 79.683594 86.03125 78.582031 C 90.234375 74.359375 94.402344 70.105469 99.023438 66.320312 C 99.933594 65.570312 100.378906 65.621094 101.128906 66.425781 C 102.148438 67.523438 103.3125 68.484375 104.628906 69.707031 Z M 104.628906 69.707031 " fill-opacity="1" fill-rule="nonzero"/><path fill="#ffffff" d="M 296.039062 72.613281 C 292.632812 66.933594 288.523438 62.308594 282.699219 59.457031 C 281.945312 59.085938 281.761719 58.707031 282.382812 58.078125 C 282.472656 57.992188 282.550781 57.894531 282.644531 57.808594 C 287.203125 53.417969 285.324219 53.441406 290.046875 57.304688 C 293.507812 60.136719 296.191406 63.703125 298.859375 67.261719 C 299.160156 67.660156 299.558594 68.003906 299.121094 68.566406 C 298.136719 69.835938 297.171875 71.125 296.039062 72.613281 Z M 296.039062 72.613281 " fill-opacity="1" fill-rule="nonzero"/><path fill="#ffffff" d="M 299.992188 67.214844 C 296.910156 61.753906 292.941406 57.316406 287.84375 53.933594 C 287.148438 53.472656 286.996094 53.070312 287.695312 52.515625 C 287.742188 52.480469 287.78125 52.425781 287.824219 52.382812 C 292.289062 47.875 290.632812 47.671875 295.304688 52.363281 C 297.996094 55.070312 300.332031 58.109375 302.644531 61.15625 C 303.265625 61.976562 303.386719 62.574219 302.65625 63.4375 C 301.695312 64.570312 300.925781 65.867188 299.992188 67.214844 Z M 299.992188 67.214844 " fill-opacity="1" fill-rule="nonzero"/><path fill="#ffffff" d="M 88.28125 53.476562 C 88.117188 53.601562 87.898438 53.808594 87.644531 53.960938 C 82.667969 56.921875 79.1875 61.320312 76.160156 66.105469 C 75.390625 67.320312 75.132812 66.886719 74.542969 66.09375 C 71.898438 62.511719 71.875 62.511719 74.609375 59.082031 C 77.179688 55.859375 79.734375 52.625 82.726562 49.757812 C 83.617188 48.902344 84.21875 48.683594 85.085938 49.753906 C 85.90625 50.769531 86.890625 51.652344 87.808594 52.59375 C 88.019531 52.808594 88.320312 52.964844 88.28125 53.476562 Z M 88.28125 53.476562 " fill-opacity="1" fill-rule="nonzero"/><path fill="#ffffff" d="M 77.804688 42.738281 C 77.628906 42.847656 77.394531 42.953125 77.207031 43.117188 C 73.429688 46.339844 70.652344 50.332031 68.386719 54.703125 C 67.800781 55.832031 67.355469 56.121094 66.53125 54.855469 C 65.648438 53.496094 64.621094 52.222656 63.59375 50.960938 C 63.0625 50.308594 63.019531 49.832031 63.613281 49.1875 C 66.761719 45.78125 70.121094 42.585938 73.503906 39.417969 C 73.972656 38.980469 74.382812 38.964844 74.804688 39.378906 C 75.695312 40.257812 76.570312 41.15625 77.4375 42.058594 C 77.5625 42.1875 77.617188 42.378906 77.804688 42.738281 Z M 77.804688 42.738281 " fill-opacity="1" fill-rule="nonzero"/><path fill="#ffffff" d="M 307.886719 55.980469 C 305.253906 50.964844 302.246094 46.539062 298.023438 43.066406 C 297.925781 42.984375 297.746094 42.882812 297.757812 42.820312 C 298.015625 41.222656 299.519531 40.570312 300.371094 39.414062 C 300.808594 38.816406 301.265625 38.902344 301.777344 39.378906 C 305.167969 42.527344 308.535156 45.699219 311.742188 49.039062 C 312.339844 49.660156 312.257812 50.132812 311.738281 50.789062 C 310.460938 52.402344 309.277344 54.09375 307.886719 55.980469 Z M 307.886719 55.980469 " fill-opacity="1" fill-rule="nonzero"/><path fill="#ffffff" d="M 304.136719 61.351562 C 301.035156 56.179688 297.804688 51.589844 293.144531 48.214844 C 292.511719 47.757812 292.527344 47.351562 293.0625 46.871094 C 293.15625 46.785156 293.242188 46.695312 293.328125 46.601562 C 296.480469 43.144531 296.460938 43.160156 299.625 46.683594 C 302.132812 49.484375 304.4375 52.441406 306.726562 55.421875 C 307.300781 56.167969 307.492188 56.683594 306.804688 57.511719 C 305.855469 58.652344 305.09375 59.953125 304.136719 61.351562 Z M 304.136719 61.351562 " fill-opacity="1" fill-rule="nonzero"/><path fill="#ffffff" d="M 82.925781 47.671875 C 82.644531 47.921875 82.441406 48.132812 82.207031 48.304688 C 77.917969 51.429688 74.796875 55.542969 72.316406 60.164062 C 71.585938 61.519531 71.179688 61.621094 70.25 60.292969 C 67.871094 56.886719 67.863281 56.960938 70.324219 53.695312 C 72.585938 50.695312 74.84375 47.707031 77.425781 44.964844 C 78.417969 43.914062 79.234375 43.628906 80.253906 44.902344 C 80.835938 45.628906 81.578125 46.230469 82.238281 46.894531 C 82.453125 47.109375 82.640625 47.347656 82.925781 47.671875 Z M 82.925781 47.671875 " fill-opacity="1" fill-rule="nonzero"/><path fill="#ffffff" d="M 187.519531 57.84375 C 191.457031 57.882812 194.515625 60.90625 194.46875 64.71875 C 194.425781 68.21875 191.066406 71.324219 187.335938 71.320312 C 183.894531 71.316406 180.695312 68.085938 180.742188 64.65625 C 180.792969 60.800781 183.773438 57.804688 187.519531 57.84375 Z M 187.519531 57.84375 " fill-opacity="1" fill-rule="nonzero"/><g clip-path="url(#da2545a490)"><g transform="matrix(1, 0, 0, 1, 50, 172)"><g clip-path="url(#92c85d5956)"><g clip-path="url(#8e113fc98b)"><path fill="#fffefe" d="M 0.246094 0.386719 L 274.628906 0.386719 L 274.628906 66.46875 L 0.246094 66.46875 Z M 0.246094 0.386719 " fill-opacity="1" fill-rule="nonzero"/></g></g></g></g><g clip-path="url(#9da142027b)"><g clip-path="url(#14baa5c81b)"><g clip-path="url(#f20c468835)"><path fill="#ffffff" d="M 167.90625 283.878906 C 168.464844 285.257812 167.964844 286.242188 166.785156 286.070312 C 165.609375 285.898438 164.199219 284.640625 163.640625 283.261719 C 163.078125 281.878906 163.582031 280.898438 164.757812 281.070312 C 165.9375 281.242188 167.34375 282.5 167.90625 283.878906 Z M 172.890625 296.171875 C 173.449219 297.550781 172.949219 298.53125 171.769531 298.359375 C 170.589844 298.191406 169.183594 296.933594 168.621094 295.554688 C 168.0625 294.171875 168.5625 293.191406 169.742188 293.363281 C 170.921875 293.53125 172.328125 294.789062 172.890625 296.171875 Z M 164.40625 289.15625 C 164.964844 290.535156 164.460938 291.519531 163.285156 291.347656 C 162.105469 291.175781 160.699219 289.917969 160.136719 288.539062 C 159.578125 287.15625 160.078125 286.175781 161.257812 286.347656 C 162.433594 286.519531 163.84375 287.777344 164.40625 289.15625 Z M 155.917969 282.144531 C 156.480469 283.523438 155.976562 284.503906 154.800781 284.332031 C 153.621094 284.164062 152.210938 282.90625 151.652344 281.523438 C 151.09375 280.144531 151.59375 279.164062 152.773438 279.332031 C 153.949219 279.503906 155.359375 280.761719 155.917969 282.144531 Z M 160.902344 294.433594 C 161.460938 295.816406 160.960938 296.796875 159.785156 296.625 C 158.605469 296.453125 157.195312 295.195312 156.636719 293.816406 C 156.078125 292.433594 156.578125 291.453125 157.757812 291.625 C 158.933594 291.796875 160.34375 293.054688 160.902344 294.433594 Z M 165.421875 279.722656 L 149.804688 277.460938 C 149.300781 277.386719 148.910156 277.886719 149.101562 278.359375 L 156.851562 297.472656 C 157.128906 298.15625 157.75 298.644531 158.480469 298.75 L 173.636719 300.945312 C 174.355469 301.050781 174.917969 300.335938 174.644531 299.664062 L 167.089844 281.027344 C 166.804688 280.328125 166.171875 279.832031 165.421875 279.722656 " fill-opacity="1" fill-rule="nonzero"/></g></g></g><g clip-path="url(#b691411a65)"><g clip-path="url(#12a32a233c)"><g clip-path="url(#478deb6e81)"><path fill="#ffffff" d="M 153.40625 273.226562 C 154.453125 272.300781 156.257812 271.683594 157.4375 271.855469 C 158.613281 272.023438 158.71875 272.917969 157.671875 273.847656 C 156.625 274.777344 154.820312 275.390625 153.640625 275.21875 C 152.464844 275.050781 152.359375 274.15625 153.40625 273.226562 Z M 163.429688 272.722656 C 164.605469 272.894531 164.710938 273.785156 163.664062 274.714844 C 162.617188 275.644531 160.8125 276.257812 159.632812 276.089844 C 158.457031 275.917969 158.351562 275.027344 159.398438 274.097656 C 160.445312 273.167969 162.25 272.550781 163.429688 272.722656 Z M 169.421875 273.589844 C 170.601562 273.761719 170.707031 274.652344 169.65625 275.582031 C 168.609375 276.511719 166.804688 277.128906 165.628906 276.957031 C 164.449219 276.785156 164.34375 275.894531 165.390625 274.964844 C 166.441406 274.035156 168.242188 273.421875 169.421875 273.589844 Z M 162.734375 264.953125 C 163.78125 264.023438 165.585938 263.410156 166.765625 263.578125 C 167.941406 263.75 168.046875 264.640625 167 265.570312 C 165.953125 266.5 164.148438 267.117188 162.972656 266.945312 C 161.792969 266.773438 161.6875 265.882812 162.734375 264.953125 Z M 172.757812 264.449219 C 173.9375 264.617188 174.042969 265.511719 172.992188 266.441406 C 171.945312 267.371094 170.140625 267.984375 168.964844 267.8125 C 167.785156 267.644531 167.679688 266.75 168.726562 265.820312 C 169.777344 264.890625 171.582031 264.277344 172.757812 264.449219 Z M 178.75 265.316406 C 179.929688 265.488281 180.035156 266.378906 178.988281 267.308594 C 177.9375 268.238281 176.136719 268.851562 174.957031 268.683594 C 173.777344 268.511719 173.671875 267.621094 174.71875 266.691406 C 175.769531 265.761719 177.574219 265.144531 178.75 265.316406 Z M 149.574219 276.554688 L 165.839844 278.914062 C 166.730469 279.042969 167.632812 278.773438 168.304688 278.175781 L 182.65625 265.445312 C 183.226562 264.941406 182.945312 264 182.191406 263.890625 L 166.648438 261.636719 C 165.699219 261.5 164.734375 261.789062 164.015625 262.425781 L 149.261719 275.511719 C 148.878906 275.851562 149.066406 276.484375 149.574219 276.554688 " fill-opacity="1" fill-rule="nonzero"/></g></g></g><g clip-path="url(#d9bfd8fa6e)"><g clip-path="url(#0f71f13a0f)"><g clip-path="url(#3445956ef2)"><path fill="#ffffff" d="M 212.035156 278.148438 C 211.945312 279.644531 211.136719 280.316406 210.234375 279.648438 C 209.328125 278.980469 208.667969 277.222656 208.761719 275.726562 C 208.851562 274.230469 209.660156 273.558594 210.5625 274.226562 C 211.46875 274.894531 212.128906 276.648438 212.035156 278.148438 Z M 215.597656 288.738281 C 215.507812 290.234375 214.699219 290.90625 213.792969 290.238281 C 212.890625 289.570312 212.230469 287.816406 212.324219 286.316406 C 212.414062 284.820312 213.222656 284.148438 214.125 284.816406 C 215.03125 285.484375 215.691406 287.242188 215.597656 288.738281 Z M 219.160156 299.328125 C 219.070312 300.828125 218.261719 301.5 217.355469 300.832031 C 216.453125 300.164062 215.792969 298.40625 215.882812 296.910156 C 215.976562 295.414062 216.78125 294.742188 217.6875 295.410156 C 218.59375 296.078125 219.25 297.832031 219.160156 299.328125 Z M 220.640625 279.878906 L 209.222656 271.441406 C 208.800781 271.132812 208.203125 271.410156 208.171875 271.933594 L 206.859375 293.445312 C 206.808594 294.292969 207.1875 295.109375 207.871094 295.613281 L 218.859375 303.734375 C 219.566406 304.253906 220.570312 303.785156 220.625 302.910156 L 221.871094 282.511719 C 221.933594 281.484375 221.46875 280.492188 220.640625 279.878906 " fill-opacity="1" fill-rule="nonzero"/></g></g></g><g clip-path="url(#424c0de18c)"><g clip-path="url(#4492050e08)"><g clip-path="url(#adeb4df55e)"><path fill="#ffffff" d="M 186.128906 294.535156 C 186.222656 293.035156 187.433594 291.554688 188.839844 291.21875 C 190.242188 290.886719 191.308594 291.832031 191.214844 293.328125 C 191.125 294.824219 189.910156 296.308594 188.507812 296.640625 C 187.101562 296.976562 186.039062 296.03125 186.128906 294.535156 Z M 186.59375 286.917969 C 186.6875 285.421875 187.898438 283.9375 189.304688 283.601562 C 190.707031 283.269531 191.773438 284.214844 191.679688 285.710938 C 191.589844 287.207031 190.375 288.691406 188.972656 289.027344 C 187.566406 289.359375 186.503906 288.414062 186.59375 286.917969 Z M 187.058594 279.300781 C 187.152344 277.804688 188.363281 276.320312 189.769531 275.988281 C 191.171875 275.652344 192.238281 276.597656 192.144531 278.09375 C 192.054688 279.589844 190.839844 281.074219 189.4375 281.410156 C 188.03125 281.742188 186.96875 280.796875 187.058594 279.300781 Z M 201.339844 288.253906 C 202.746094 287.921875 203.8125 288.867188 203.71875 290.363281 C 203.628906 291.859375 202.414062 293.34375 201.011719 293.675781 C 199.605469 294.011719 198.542969 293.066406 198.632812 291.570312 C 198.726562 290.070312 199.9375 288.585938 201.339844 288.253906 Z M 199.097656 283.953125 C 199.191406 282.457031 200.402344 280.972656 201.804688 280.640625 C 203.210938 280.304688 204.277344 281.25 204.183594 282.746094 C 204.09375 284.242188 202.878906 285.726562 201.476562 286.0625 C 200.070312 286.394531 199.007812 285.449219 199.097656 283.953125 Z M 199.5625 276.335938 C 199.65625 274.839844 200.867188 273.355469 202.269531 273.023438 C 203.675781 272.6875 204.742188 273.632812 204.648438 275.128906 C 204.558594 276.625 203.34375 278.109375 201.941406 278.445312 C 200.535156 278.777344 199.472656 277.832031 199.5625 276.335938 Z M 185.25 299.105469 L 204.226562 294.605469 C 205.25 294.359375 205.992188 293.476562 206.058594 292.425781 L 207.304688 271.96875 C 207.363281 271.042969 206.511719 270.328125 205.609375 270.542969 L 186.328125 275.113281 C 185.4375 275.324219 184.789062 276.09375 184.734375 277.003906 L 183.476562 297.613281 C 183.417969 298.578125 184.308594 299.328125 185.25 299.105469 " fill-opacity="1" fill-rule="nonzero"/></g></g></g><g clip-path="url(#31d206a7cd)"><g clip-path="url(#2e5f37aa67)"><g clip-path="url(#9271757c16)"><path fill="#ffffff" d="M 214.421875 305.375 C 213.015625 305.707031 211.144531 305.4375 210.242188 304.769531 C 209.335938 304.101562 209.742188 303.289062 211.144531 302.957031 C 212.550781 302.621094 214.421875 302.894531 215.328125 303.5625 C 216.230469 304.230469 215.824219 305.042969 214.421875 305.375 Z M 192.707031 302.507812 C 191.300781 302.839844 189.429688 302.566406 188.527344 301.898438 C 187.621094 301.230469 188.027344 300.417969 189.429688 300.085938 C 190.835938 299.753906 192.707031 300.023438 193.609375 300.695312 C 194.515625 301.363281 194.109375 302.171875 192.707031 302.507812 Z M 207.105469 296.117188 C 206.253906 295.488281 205.164062 295.265625 204.132812 295.511719 L 185.863281 299.84375 C 185.230469 299.992188 185.0625 300.8125 185.585938 301.195312 L 197.007812 309.636719 C 197.578125 310.058594 198.308594 310.207031 199 310.042969 L 217.863281 305.570312 C 218.472656 305.425781 218.632812 304.636719 218.128906 304.265625 L 207.105469 296.117188 " fill-opacity="1" fill-rule="nonzero"/></g></g></g><g clip-path="url(#1f3d7aeb11)"><g clip-path="url(#b4ed7e7a22)"><g clip-path="url(#bbae7e2497)"><path fill="#ffffff" d="M 180.09375 273.265625 C 179.53125 271.886719 179.929688 270.011719 180.976562 269.082031 C 182.023438 268.152344 183.328125 268.519531 183.886719 269.902344 C 184.445312 271.28125 184.050781 273.152344 183.003906 274.082031 C 181.957031 275.011719 180.652344 274.648438 180.09375 273.265625 Z M 174.558594 278.175781 C 175.117188 279.554688 174.722656 281.429688 173.675781 282.359375 C 172.625 283.289062 171.324219 282.921875 170.761719 281.542969 C 170.203125 280.160156 170.597656 278.289062 171.648438 277.359375 C 172.695312 276.429688 174 276.792969 174.558594 278.175781 Z M 180.253906 292.222656 C 180.8125 293.605469 180.417969 295.476562 179.371094 296.40625 C 178.320312 297.335938 177.019531 296.96875 176.460938 295.589844 C 175.898438 294.207031 176.292969 292.335938 177.34375 291.40625 C 178.390625 290.476562 179.695312 290.84375 180.253906 292.222656 Z M 185.046875 274.1875 C 185.347656 274.007812 185.671875 273.875 186.015625 273.792969 L 187.828125 273.363281 L 185.125 266.699219 C 184.792969 265.875 183.746094 265.628906 183.082031 266.21875 L 169.035156 278.679688 C 168.167969 279.449219 167.878906 280.679688 168.3125 281.753906 L 175.453125 299.367188 C 175.839844 300.324219 177.054688 300.605469 177.828125 299.921875 L 182.214844 296.03125 L 183.382812 276.921875 C 183.449219 275.789062 184.074219 274.769531 185.046875 274.1875 " fill-opacity="1" fill-rule="nonzero"/></g></g></g><g transform="matrix(1, 0, 0, 1, 63, 174)"><g clip-path="url(#8c907c79a2)"><g fill="#19121f" fill-opacity="1"><g transform="translate(1.372051, 35.511117)"><g><path d="M 19.296875 -19.296875 C 19.296875 -20.804688 18.535156 -21.5625 17.015625 -21.5625 L 10.59375 -21.5625 C 9.082031 -21.5625 8.328125 -20.804688 8.328125 -19.296875 L 8.328125 -7.1875 C 8.328125 -5.675781 9.082031 -4.921875 10.59375 -4.921875 L 17.015625 -4.921875 C 18.535156 -4.921875 19.296875 -5.675781 19.296875 -7.1875 Z M 26.09375 -7.1875 C 26.09375 -4.539062 25.492188 -2.617188 24.296875 -1.421875 C 23.097656 -0.222656 21.175781 0.375 18.53125 0.375 L 9.078125 0.375 C 6.429688 0.375 4.507812 -0.222656 3.3125 -1.421875 C 2.113281 -2.617188 1.515625 -4.539062 1.515625 -7.1875 L 1.515625 -19.296875 C 1.515625 -21.941406 2.113281 -23.863281 3.3125 -25.0625 C 4.507812 -26.257812 6.429688 -26.859375 9.078125 -26.859375 L 18.53125 -26.859375 C 21.175781 -26.859375 23.097656 -26.257812 24.296875 -25.0625 C 25.492188 -23.863281 26.09375 -21.941406 26.09375 -19.296875 Z M 26.09375 -7.1875 "/></g></g></g><g fill="#19121f" fill-opacity="1"><g transform="translate(32.655425, 35.511117)"><g><path d="M 9.078125 -5.296875 L 22.890625 -5.296875 L 22.890625 0 L 2.265625 0 L 2.265625 -26.484375 L 9.078125 -26.484375 Z M 9.078125 -5.296875 "/></g></g></g><g fill="#19121f" fill-opacity="1"><g transform="translate(59.588678, 35.511117)"><g><path d="M 17.015625 -26.484375 C 19.867188 -26.484375 22.03125 -25.742188 23.5 -24.265625 C 24.976562 -22.785156 25.71875 -20.625 25.71875 -17.78125 L 25.71875 -8.703125 C 25.71875 -5.847656 24.976562 -3.679688 23.5 -2.203125 C 22.03125 -0.734375 19.867188 0 17.015625 0 L 2.265625 0 L 2.265625 -26.484375 Z M 18.921875 -17.78125 C 18.921875 -20.050781 17.785156 -21.1875 15.515625 -21.1875 L 9.078125 -21.1875 L 9.078125 -5.296875 L 15.515625 -5.296875 C 17.785156 -5.296875 18.921875 -6.429688 18.921875 -8.703125 Z M 18.921875 -17.78125 "/></g></g></g><g fill="#19121f" fill-opacity="1"><g transform="translate(90.493782, 35.511117)"><g><path d="M 21.5625 -26.484375 L 26.09375 -9.453125 L 30.078125 -26.484375 L 37.453125 -26.484375 L 30.265625 0 L 23.078125 0 L 18.53125 -16.453125 L 14 0 L 6.8125 0 L -0.375 -26.484375 L 7 -26.484375 L 10.96875 -9.453125 L 15.515625 -26.484375 Z M 21.5625 -26.484375 "/></g></g></g><g fill="#19121f" fill-opacity="1"><g transform="translate(131.233937, 35.511117)"><g><path d="M 19.296875 -19.296875 C 19.296875 -20.804688 18.535156 -21.5625 17.015625 -21.5625 L 10.59375 -21.5625 C 9.082031 -21.5625 8.328125 -20.804688 8.328125 -19.296875 L 8.328125 -7.1875 C 8.328125 -5.675781 9.082031 -4.921875 10.59375 -4.921875 L 17.015625 -4.921875 C 18.535156 -4.921875 19.296875 -5.675781 19.296875 -7.1875 Z M 26.09375 -7.1875 C 26.09375 -4.539062 25.492188 -2.617188 24.296875 -1.421875 C 23.097656 -0.222656 21.175781 0.375 18.53125 0.375 L 9.078125 0.375 C 6.429688 0.375 4.507812 -0.222656 3.3125 -1.421875 C 2.113281 -2.617188 1.515625 -4.539062 1.515625 -7.1875 L 1.515625 -19.296875 C 1.515625 -21.941406 2.113281 -23.863281 3.3125 -25.0625 C 4.507812 -26.257812 6.429688 -26.859375 9.078125 -26.859375 L 18.53125 -26.859375 C 21.175781 -26.859375 23.097656 -26.257812 24.296875 -25.0625 C 25.492188 -23.863281 26.09375 -21.941406 26.09375 -19.296875 Z M 26.09375 -7.1875 "/></g></g></g><g fill="#19121f" fill-opacity="1"><g transform="translate(162.517311, 35.511117)"><g><path d="M 2.265625 -26.484375 L 18.15625 -26.484375 C 20.800781 -26.484375 22.722656 -25.882812 23.921875 -24.6875 C 25.117188 -23.488281 25.71875 -21.566406 25.71875 -18.921875 L 25.71875 -15.515625 C 25.71875 -13.421875 25.367188 -11.789062 24.671875 -10.625 C 23.984375 -9.46875 22.882812 -8.703125 21.375 -8.328125 L 26.09375 0 L 18.71875 0 L 14.375 -7.9375 L 9.078125 -7.9375 L 9.078125 0 L 2.265625 0 Z M 18.921875 -18.921875 C 18.921875 -20.429688 18.160156 -21.1875 16.640625 -21.1875 L 9.078125 -21.1875 L 9.078125 -13.234375 L 16.640625 -13.234375 C 18.160156 -13.234375 18.921875 -13.992188 18.921875 -15.515625 Z M 18.921875 -18.921875 "/></g></g></g><g fill="#19121f" fill-opacity="1"><g transform="translate(193.422414, 35.511117)"><g><path d="M 9.078125 -5.296875 L 22.890625 -5.296875 L 22.890625 0 L 2.265625 0 L 2.265625 -26.484375 L 9.078125 -26.484375 Z M 9.078125 -5.296875 "/></g></g></g><g fill="#19121f" fill-opacity="1"><g transform="translate(220.355667, 35.511117)"><g><path d="M 17.015625 -26.484375 C 19.867188 -26.484375 22.03125 -25.742188 23.5 -24.265625 C 24.976562 -22.785156 25.71875 -20.625 25.71875 -17.78125 L 25.71875 -8.703125 C 25.71875 -5.847656 24.976562 -3.679688 23.5 -2.203125 C 22.03125 -0.734375 19.867188 0 17.015625 0 L 2.265625 0 L 2.265625 -26.484375 Z M 18.921875 -17.78125 C 18.921875 -20.050781 17.785156 -21.1875 15.515625 -21.1875 L 9.078125 -21.1875 L 9.078125 -5.296875 L 15.515625 -5.296875 C 17.785156 -5.296875 18.921875 -6.429688 18.921875 -8.703125 Z M 18.921875 -17.78125 "/></g></g></g></g></g><g transform="matrix(1, 0, 0, 1, 114, 213)"><g clip-path="url(#9cb17392f7)"><g fill="#19121f" fill-opacity="1"><g transform="translate(1.094241, 17.450301)"><g><path d="M 1.09375 -12.8125 L 8.78125 -12.8125 C 10.0625 -12.8125 10.988281 -12.519531 11.5625 -11.9375 C 12.144531 -11.351562 12.4375 -10.425781 12.4375 -9.15625 L 12.4375 -7.5 C 12.4375 -6.488281 12.269531 -5.703125 11.9375 -5.140625 C 11.601562 -4.578125 11.070312 -4.207031 10.34375 -4.03125 L 12.625 0 L 9.0625 0 L 6.953125 -3.84375 L 4.390625 -3.84375 L 4.390625 0 L 1.09375 0 Z M 9.15625 -9.15625 C 9.15625 -9.882812 8.785156 -10.25 8.046875 -10.25 L 4.390625 -10.25 L 4.390625 -6.40625 L 8.046875 -6.40625 C 8.785156 -6.40625 9.15625 -6.769531 9.15625 -7.5 Z M 9.15625 -9.15625 "/></g></g></g><g fill="#19121f" fill-opacity="1"><g transform="translate(20.952848, 17.450301)"><g><path d="M 3.390625 0 L -0.1875 0 L 4.671875 -12.8125 L 8.328125 -12.8125 L 13.171875 0 L 9.609375 0 L 8.78125 -2.28125 L 4.203125 -2.28125 Z M 5.03125 -4.671875 L 7.953125 -4.671875 L 6.5 -8.96875 Z M 5.03125 -4.671875 "/></g></g></g><g fill="#19121f" fill-opacity="1"><g transform="translate(40.628422, 17.450301)"><g><path d="M 12.265625 0 L 8.78125 0 L 4.390625 -7.6875 L 4.390625 0 L 1.09375 0 L 1.09375 -12.8125 L 4.578125 -12.8125 L 8.96875 -5.125 L 8.96875 -12.8125 L 12.265625 -12.8125 Z M 12.265625 0 "/></g></g></g><g fill="#19121f" fill-opacity="1"><g transform="translate(60.670053, 17.450301)"><g><path d="M 4.390625 0 L 1.09375 0 L 1.09375 -12.8125 L 4.390625 -12.8125 L 4.390625 -7.78125 L 6.03125 -7.78125 L 8.890625 -12.8125 L 12.375 -12.8125 L 8.78125 -6.5 L 12.34375 0 L 8.875 0 L 6.03125 -5.21875 L 4.390625 -5.21875 Z M 4.390625 0 "/></g></g></g><g fill="#19121f" fill-opacity="1"><g transform="translate(79.723332, 17.450301)"><g><path d="M 7.140625 0 L 0.546875 0 L 0.546875 -2.5625 L 2.203125 -2.5625 L 2.203125 -10.25 L 0.546875 -10.25 L 0.546875 -12.8125 L 7.140625 -12.8125 L 7.140625 -10.25 L 5.484375 -10.25 L 5.484375 -2.5625 L 7.140625 -2.5625 Z M 7.140625 0 "/></g></g></g><g fill="#19121f" fill-opacity="1"><g transform="translate(94.091076, 17.450301)"><g><path d="M 12.265625 0 L 8.78125 0 L 4.390625 -7.6875 L 4.390625 0 L 1.09375 0 L 1.09375 -12.8125 L 4.578125 -12.8125 L 8.96875 -5.125 L 8.96875 -12.8125 L 12.265625 -12.8125 Z M 12.265625 0 "/></g></g></g><g fill="#19121f" fill-opacity="1"><g transform="translate(114.132707, 17.450301)"><g><path d="M 12.078125 -0.28125 C 9.222656 0.03125 6.597656 0.1875 4.203125 0.1875 C 3.015625 0.1875 2.140625 -0.09375 1.578125 -0.65625 C 1.015625 -1.21875 0.734375 -2.097656 0.734375 -3.296875 L 0.734375 -9.15625 C 0.734375 -10.425781 1.019531 -11.351562 1.59375 -11.9375 C 2.175781 -12.519531 3.109375 -12.8125 4.390625 -12.8125 L 10.984375 -12.8125 L 10.984375 -10.25 L 5.125 -10.25 C 4.394531 -10.25 4.03125 -9.882812 4.03125 -9.15625 L 4.03125 -3.296875 C 4.03125 -3.015625 4.109375 -2.789062 4.265625 -2.625 C 4.429688 -2.457031 4.65625 -2.375 4.9375 -2.375 C 6.34375 -2.375 7.625 -2.40625 8.78125 -2.46875 L 8.78125 -5.125 L 6.40625 -5.125 L 6.40625 -7.3125 L 12.078125 -7.3125 Z M 12.078125 -0.28125 "/></g></g></g><g fill="#19121f" fill-opacity="1"><g transform="translate(133.625248, 17.450301)"><g><path d="M 0.71875 -2.65625 C 4.0625 -2.46875 6.320312 -2.375 7.5 -2.375 C 7.78125 -2.375 8.003906 -2.457031 8.171875 -2.625 C 8.335938 -2.789062 8.421875 -3.015625 8.421875 -3.296875 L 8.421875 -4.9375 L 4.203125 -4.9375 C 2.921875 -4.9375 1.988281 -5.222656 1.40625 -5.796875 C 0.832031 -6.378906 0.546875 -7.3125 0.546875 -8.59375 L 0.546875 -9.15625 C 0.546875 -10.425781 0.832031 -11.351562 1.40625 -11.9375 C 1.988281 -12.519531 2.921875 -12.8125 4.203125 -12.8125 L 10.625 -12.8125 L 10.625 -10.25 L 4.9375 -10.25 C 4.207031 -10.25 3.84375 -9.882812 3.84375 -9.15625 L 3.84375 -8.78125 C 3.84375 -8.050781 4.207031 -7.6875 4.9375 -7.6875 L 8.234375 -7.6875 C 9.429688 -7.6875 10.304688 -7.40625 10.859375 -6.84375 C 11.421875 -6.28125 11.703125 -5.398438 11.703125 -4.203125 L 11.703125 -3.296875 C 11.703125 -2.097656 11.421875 -1.21875 10.859375 -0.65625 C 10.304688 -0.09375 9.429688 0.1875 8.234375 0.1875 C 7.609375 0.1875 6.945312 0.171875 6.25 0.140625 L 4.578125 0.078125 C 3.328125 0.015625 2.039062 -0.0703125 0.71875 -0.1875 Z M 0.71875 -2.65625 "/></g></g></g></g></g></svg>